# xmcd
#
# Track frame offsets:
#	150
#	15966
#	34997
#	53613
#	69045
#	88529
#	104854
#	128810
#	153885
#	175518
#	194804
#	214094
#	232857
#	250262
#	266009
#	283255
#
# Disc length: 4119 seconds
#
# Revision: 0
# Processed by: cddbd v1.4PL0 Copyright (c) Steve Scherf et al.
# Submitted via: audiograbber 1.82.00
#
DISCID=d8101510
DTITLE=Celine Dion - A New Day Has Come
DYEAR=2002
DGENRE=Soul
TTITLE0=I'm Alive
TTITLE1=Right In Front Of You
TTITLE2=Have You Ever Been In Love
TTITLE3=Rain, Tax (It's Inevitable)
TTITLE4=A New Day Has Come (Radio Remix)
TTITLE5=Ten Days
TTITLE6=Goodbye's (The Saddest Word)
TTITLE7=Prayer
TTITLE8=I Surrender
TTITLE9=At Last
TTITLE10=Super Love
TTITLE11=Sorry For Love
TTITLE12=Aun Existe Amor
TTITLE13=The Greatest Reward
TTITLE14=When The Wrong One Loves You Right
TTITLE15=A New Day Has Come (Album Version)
EXTD=
EXTT0=
EXTT1=
EXTT2=
EXTT3=
EXTT4=
EXTT5=
EXTT6=
EXTT7=
EXTT8=
EXTT9=
EXTT10=
EXTT11=
EXTT12=
EXTT13=
EXTT14=
EXTT15=
PLAYORDER=
